<svg width="44" height="32" viewBox="0 0 44 32" fill="none" xmlns="http://www.w3.org/2000/svg">
<path d="M40 0H4C1.8 0 0 1.8 0 4V28C0 30.2 1.8 32 4 32H40C42.2 32 44 30.2 44 28V4C44 1.8 42.2 0 40 0ZM4 2H40C40.2 2 40.5 2 40.7 2.1L23.4 19.4C23 19.8 22.5 20 22 20C21.5 20 21 19.8 20.6 19.4L3.3 2.1C3.5 2 3.8 2 4 2ZM2 28V4C2 3.9 2 3.8 2 3.7L14.4 16L2 28.3C2 28.2 2 28.1 2 28ZM40 30H4C3.8 30 3.5 30 3.3 29.9L15.8 17.4L19.2 20.8C20 21.6 21 22 22 22C23 22 24 21.6 24.8 20.9L28.2 17.5L40.7 30C40.5 30 40.2 30 40 30ZM42 28C42 28.1 42 28.2 42 28.3L29.6 16L42 3.7C42 3.8 42 3.9 42 4V28Z" fill="white"/>
</svg>
