<svg width="113" height="113" viewBox="0 0 113 113" fill="none" xmlns="http://www.w3.org/2000/svg">
<path d="M112.494 56.497C112.494 87.4232 87.4232 112.494 56.497 112.494C25.5707 112.494 0.5 87.4232 0.5 56.497C0.5 25.5707 25.5707 0.5 56.497 0.5C87.4232 0.5 112.494 25.5707 112.494 56.497Z" fill="white" stroke="#F39A00"/>
<path d="M22.6364 88.585L18.4964 64.9105H21.9262L23.3224 74.9691C23.7655 78.2107 24.3543 81.859 24.5364 84.4692H24.5971C24.7974 81.9804 25.4227 78.3078 25.8112 75.048L27.177 64.9105H30.5765L26.4911 88.585H22.6364Z" fill="#585856"/>
<path d="M34.4251 81.7254L33.4659 88.585H30.2365L34.0851 64.9105H38.5894L42.5958 88.585H39.2692L38.213 81.7254H34.4251ZM37.8306 78.8055C37.1628 74.277 36.6165 70.3677 36.3615 67.8789H36.2401C36.1491 69.785 35.3781 74.9691 34.8318 78.8055H37.8306Z" fill="#585856"/>
<path d="M44.4291 64.8801H47.6099V85.7379H53.5711L53.2736 88.585H44.4291V64.8801Z" fill="#585856"/>
<path d="M63.5204 77.4822H58.2635V85.659H64.2792L63.8664 88.585H55.0826V64.9105H63.8118V67.8546H58.2635V74.5867H63.5204V77.4822Z" fill="#585856"/>
<path d="M66.1489 88.585V64.9105H69.8639C70.9505 68.6924 73.9797 80.6934 74.2832 82.2414H74.3317C74.1739 79.2062 74.1557 75.8736 74.1557 71.9946V64.9105H77.1119V88.585H73.5244C72.5592 85.0702 69.2751 72.0493 68.9776 70.6774H68.9412C69.1112 73.5426 69.1294 76.9966 69.1294 81.2701V88.5546L66.1489 88.585Z" fill="#585856"/>
<path d="M82.6724 67.8242H78.8541V64.8801H89.6777V67.8242H85.8533V88.585H82.6724V67.8242Z" fill="#585856"/>
<path d="M94.5096 64.8801V88.5546H91.3288V64.8801H94.5096Z" fill="#585856"/>
<path d="M66.8895 27.0193C66.9803 27.0284 67.0718 27.0284 67.1626 27.0193C73.0448 26.1634 73.142 26.1512 74.1314 32.2216C74.8963 36.9079 75.3455 41.6428 75.9526 46.3534C76.0557 47.1608 76.2014 47.9924 75.4123 48.6237C71.0538 52.0899 67.0048 55.9568 62.0575 58.6824C61.9037 58.4281 61.8122 58.141 61.7903 57.8447C61.7939 57.3919 61.8718 56.9427 62.021 56.5152C64.2003 48.0167 65.2687 39.3543 65.8636 30.6251C65.9304 29.6295 65.8089 28.6158 66.1792 27.6566C66.2456 27.5061 66.3433 27.3714 66.4657 27.2615C66.5882 27.1516 66.7326 27.0691 66.8895 27.0193Z" fill="white"/>
<path d="M62.0939 60.121C61.8498 60.1196 61.6102 60.0557 61.3978 59.9357C61.1853 59.8157 61.007 59.6434 60.8798 59.4351C60.6009 58.9841 60.4382 58.471 60.4063 57.9417V57.8932C60.4025 57.2965 60.499 56.7035 60.6917 56.1388C62.5917 48.7208 63.7936 40.5926 64.4796 30.5583C64.4796 30.3094 64.4796 30.0544 64.4796 29.8055C64.446 28.9114 64.5756 28.0187 64.862 27.171V27.0982C65.1411 26.4679 65.655 25.9713 66.2946 25.7141C66.4867 25.6342 66.6938 25.597 66.9016 25.6049H67.0048C73.5972 24.6518 74.3924 25.2831 75.5033 32.0091C76.0618 35.451 76.4746 38.9658 76.8813 42.3591C77.0351 43.6379 77.1889 44.9167 77.3426 46.1956V46.3109C77.458 47.1911 77.6401 48.6601 76.2561 49.7649C75.1452 50.6512 74.0282 51.586 72.9538 52.4784C69.779 55.1311 66.501 57.8689 62.7313 59.951C62.5351 60.0569 62.3167 60.1152 62.0939 60.121ZM67.4783 28.4336C67.3861 28.893 67.3474 29.3616 67.363 29.8298C67.363 30.1273 67.363 30.4369 67.3265 30.7283C66.6588 40.5987 65.5054 48.6783 63.6843 56.0599C66.2986 54.2735 68.8078 52.3379 71.1994 50.2627C72.286 49.3522 73.4151 48.4416 74.5503 47.5068C74.6353 47.44 74.6778 47.4096 74.5503 46.6569V46.5355C74.3925 45.2547 74.2407 43.9677 74.0889 42.6869C73.6883 39.3178 73.2816 35.8395 72.7292 32.4583C72.4135 30.5158 72.0857 28.5126 71.6486 28.209C71.2116 27.9055 69.4937 28.1483 67.4965 28.4336H67.4783Z" fill="white"/>
<path d="M66.8894 27.0192C66.7804 27.1289 66.6974 27.2617 66.6466 27.4077C66.6041 27.4806 66.5677 27.6081 66.507 27.6323C62.6948 28.8828 62.0999 32.1062 61.4443 35.4631C60.8373 38.4983 60.1331 41.4849 59.3743 44.4776C59.1618 45.3396 59.1497 46.2987 58.3484 46.9058C57.0069 47.0575 56.7337 45.892 56.242 45.0847C54.1841 41.7399 52.3569 38.2555 50.1109 35.0139C47.9377 31.8756 47.7131 31.7663 44.0405 32.8589C43.2635 33.0896 42.523 33.5449 41.6549 33.3081C41.5517 33.2231 41.4424 33.1442 41.3332 33.0653C40.2891 31.3595 40.5501 30.3883 42.6444 29.6902C49.338 27.4684 56.1166 25.5462 62.9801 23.9233C66.5981 23.0917 66.6041 23.1342 66.8894 27.0192Z" fill="white"/>
<path d="M58.0996 48.3688C56.321 48.3688 55.5865 46.9544 55.2222 46.2502C55.1587 46.1168 55.0878 45.9872 55.0098 45.8618C54.2631 44.6477 53.5407 43.3972 52.8366 42.2195C51.6225 40.101 50.3356 37.9095 48.9273 35.882C48.2535 34.9047 47.5553 33.897 47.1486 33.7513C46.7419 33.6056 45.7342 33.897 44.4291 34.2855C44.2686 34.332 44.1105 34.3867 43.9556 34.4494C43.1124 34.8438 42.1613 34.9442 41.2543 34.7347C41.0857 34.69 40.9271 34.6138 40.7869 34.5101L40.4469 34.2552C40.3062 34.1448 40.1851 34.0114 40.0888 33.8606C39.591 33.0472 38.984 31.8209 39.4453 30.5522C39.9067 29.2835 41.23 28.6947 42.177 28.3791C48.8544 26.1573 55.7382 24.2087 62.6341 22.5757C64.7102 22.084 65.9668 21.7866 67.0109 22.5757C68.055 23.3649 68.146 24.6276 68.3099 26.9586C68.3378 27.3341 68.2156 27.7052 67.97 27.9905C67.952 28.0439 67.9275 28.0948 67.8972 28.1423C67.8122 28.3511 67.683 28.5389 67.5185 28.6929C67.3539 28.847 67.158 28.9636 66.9441 29.0346C64.1153 29.9634 63.5508 32.173 62.8587 35.712V35.797C62.2031 39.1539 61.4019 42.4198 60.7766 44.9026C60.7342 45.0604 60.7038 45.2183 60.6734 45.3761C60.5657 46.4482 60.0455 47.4365 59.2226 48.1321C59.0138 48.2898 58.7663 48.3883 58.5063 48.4174C58.3697 48.4107 58.2339 48.3945 58.0996 48.3688ZM46.9665 30.8315C48.6541 30.8315 49.6011 31.7845 51.2886 34.2248C52.7577 36.3434 54.0627 38.5834 55.3193 40.7505C56.0113 41.9646 56.7277 43.1786 57.4561 44.3562C57.5654 44.5384 57.6686 44.7326 57.7718 44.9269V44.9754C57.7718 44.9087 57.7718 44.8297 57.8204 44.7508C57.8629 44.5384 57.9053 44.332 57.9539 44.1438C58.5609 41.7156 59.3622 38.4923 59.9996 35.2021V35.1172C60.6067 31.8513 61.3594 28.1666 65.3597 26.5215C65.3325 25.9989 65.2777 25.4782 65.1958 24.9614C64.7466 25.01 63.9332 25.2043 63.2533 25.3621C56.4363 26.9768 49.6375 28.9072 43.039 31.0986C42.7069 31.1855 42.3939 31.3337 42.1163 31.5356C42.1501 31.6835 42.2031 31.8265 42.2741 31.9606C42.4807 31.9049 42.6834 31.8359 42.8811 31.7541C43.0997 31.6692 43.3182 31.5903 43.5428 31.5235C44.6466 31.1357 45.7988 30.9028 46.9665 30.8315Z" fill="white"/>
<path d="M56.4484 58.8462C50.8637 58.8037 47.877 55.5439 45.7767 50.7361C43.8098 46.2319 41.4849 41.8855 39.6699 37.3024C38.8443 35.2203 39.0628 33.8423 41.3149 33.0896L41.5699 33.2414C43.8463 34.8075 44.7447 37.4178 46.2562 39.5485C49.7346 44.4655 53.6985 49.0122 57.1829 53.9474C57.2932 54.2173 57.3747 54.4981 57.4257 54.7851C57.2618 56.1813 58.2331 57.8385 56.4484 58.8462Z" fill="white"/>
<path d="M56.4484 60.2848C49.2004 60.2302 46.1287 55.1372 44.4715 51.3129C43.6763 49.4918 42.7961 47.6342 41.9463 45.8496C40.7322 43.2575 39.4331 40.5744 38.3465 37.8305C37.9459 36.8168 37.4845 35.3053 38.1341 33.903C38.4114 33.3694 38.798 32.9001 39.2686 32.5257C39.7393 32.1513 40.2834 31.8802 40.8657 31.7299C41.0552 31.6634 41.2567 31.6383 41.4566 31.6561C41.6566 31.6739 41.8505 31.7342 42.0252 31.833C42.1469 31.8987 42.2644 31.9717 42.3773 32.0516C44.2348 33.3264 45.2485 35.0867 46.2259 36.7622C46.6326 37.4602 47.0089 38.1159 47.4399 38.7229C49.1093 41.0843 50.9365 43.4092 52.703 45.6553C54.5909 48.0834 56.5455 50.5541 58.3424 53.1279C58.398 53.2108 58.4467 53.2981 58.4881 53.3889C58.6388 53.7545 58.7507 54.135 58.8219 54.5241C58.84 54.655 58.84 54.7878 58.8219 54.9187C58.8145 55.2297 58.8369 55.5407 58.8886 55.8474C59.0161 56.9158 59.265 58.8826 57.1525 60.0967C56.9382 60.2196 56.6955 60.2844 56.4484 60.2848ZM41.145 34.7225C40.973 34.8071 40.8296 34.94 40.7322 35.105C40.6533 35.2749 40.5865 35.712 41.0053 36.7743C42.0555 39.4271 43.3121 42.0616 44.5262 44.6112C45.3882 46.4323 46.2745 48.2898 47.094 50.1656C49.2186 55.0219 51.9017 57.2254 56.0113 57.4014C56.1327 57.2436 56.1327 56.9704 56.0113 56.1873C55.9476 55.7513 55.9191 55.3108 55.9263 54.8701C55.9064 54.7839 55.8821 54.6988 55.8535 54.6151C54.1295 52.1566 52.2112 49.7588 50.3901 47.4096C48.569 45.0604 46.7479 42.7779 45.0482 40.3619C44.5444 39.6517 44.1134 38.905 43.6946 38.1827C43.0534 36.8892 42.1905 35.718 41.145 34.7225Z" fill="white"/>
<path d="M56.4484 58.8462L57.0129 54.0688C58.9676 55.119 60.2363 56.8977 61.7114 58.4578C61.7924 58.4417 61.8765 58.4555 61.948 58.4968C62.0195 58.5382 62.0735 58.6042 62.0999 58.6824L61.9178 58.8584C60.1999 59.5383 58.488 60.2546 56.7033 59.0527C56.6021 59.0068 56.5144 58.9357 56.4484 58.8462Z" fill="white"/>
<path d="M58.7491 61.1408C57.7558 61.1392 56.7857 60.8411 55.9628 60.2849C55.7269 60.1438 55.5208 59.9583 55.3558 59.7386C55.1184 59.4384 55.0094 59.0565 55.0522 58.6763L55.6228 53.8989C55.649 53.6665 55.732 53.444 55.8644 53.2512C55.9968 53.0584 56.1746 52.9011 56.3821 52.7931C56.5896 52.6852 56.8204 52.63 57.0542 52.6323C57.2881 52.6345 57.5179 52.6942 57.7232 52.8062C59.2957 53.7481 60.6841 54.9679 61.8207 56.4059C62.0393 56.6548 62.2578 56.9037 62.4824 57.1465C62.7027 57.2401 62.9025 57.3761 63.0702 57.547C63.2379 57.7178 63.3702 57.92 63.4597 58.1421C63.566 58.4077 63.591 58.699 63.5316 58.9789C63.4721 59.2588 63.331 59.5147 63.1259 59.7143L62.968 59.8721C62.8275 60.0114 62.6602 60.1208 62.4763 60.1939L62.3671 60.2363C61.2294 60.7647 60.0015 61.0716 58.7491 61.1408ZM57.9781 58.1056C58.474 58.283 59.0128 58.3021 59.52 58.1602C59.0648 57.6442 58.6155 57.1465 58.1481 56.6912L57.9781 58.1056Z" fill="white"/>
<path d="M56.7034 59.0526L61.9179 58.8583C61.1348 59.7567 60.036 60.1513 59.0101 60.6794C57.2801 61.5353 56.4909 60.9951 56.7034 59.0526Z" fill="white"/>
<path d="M57.6565 62.4945C57.1732 62.5013 56.7 62.357 56.3028 62.0817C55.459 61.4747 55.0887 60.4245 55.2768 58.9008C55.3131 58.558 55.4718 58.2397 55.7238 58.0044C55.9758 57.7692 56.3042 57.6327 56.6488 57.62L61.8632 57.4257C62.1428 57.4165 62.4191 57.489 62.6581 57.6344C62.8972 57.7797 63.0887 57.9916 63.2092 58.2442C63.3296 58.4967 63.3739 58.7789 63.3365 59.0562C63.299 59.3334 63.1815 59.5938 62.9983 59.8053C62.2085 60.6284 61.2496 61.2704 60.1878 61.6871L59.6475 61.9482C59.0345 62.2806 58.3533 62.4674 57.6565 62.4945Z" fill="white"/>
<path d="M57.9721 46.9058C59.083 42.1344 60.4002 37.3995 61.2379 32.5918C61.8449 29.3441 63.314 27.5413 66.6405 27.4077C66.5495 37.6059 65.3779 47.6585 62.3913 57.4439C60.2667 54.4451 59.3561 50.8757 57.7171 47.6342C57.6912 47.501 57.7012 47.3634 57.746 47.2354C57.7908 47.1074 57.8689 46.9937 57.9721 46.9058Z" fill="white"/>
<path d="M62.3671 58.8826C62.1376 58.8817 61.9116 58.8262 61.7079 58.7206C61.5041 58.615 61.3285 58.4625 61.1955 58.2756C59.8748 56.2674 58.793 54.1121 57.9721 51.8531C57.4683 50.6026 56.9887 49.425 56.412 48.2777C56.3438 48.1398 56.2968 47.9924 56.2724 47.8405C56.1862 47.275 56.3234 46.6982 56.6548 46.232C56.9644 44.9147 57.2618 43.6035 57.6018 42.2923C58.4031 39.0386 59.2226 35.6634 59.8235 32.3369C60.5641 28.209 62.7738 26.1269 66.586 25.969C66.7805 25.9608 66.9746 25.9927 67.1563 26.0626C67.338 26.1326 67.5034 26.2391 67.6422 26.3757C67.781 26.5118 67.8913 26.6743 67.9663 26.8536C68.0414 27.0329 68.0797 27.2255 68.0792 27.4199C67.976 38.7533 66.5556 48.7147 63.739 57.8688C63.6614 58.1251 63.5132 58.3545 63.3113 58.5305C63.1095 58.7066 62.8622 58.8223 62.5978 58.8644C62.5215 58.8765 62.4443 58.8826 62.3671 58.8826ZM59.253 47.5553C59.7629 48.6236 60.1999 49.7103 60.6309 50.7726C61.0619 51.8349 61.4625 52.8183 61.9239 53.8078C63.9891 45.7312 65.0834 37.4371 65.1837 29.1013C63.7693 29.5687 63.0348 30.71 62.6463 32.8589C62.0393 36.2765 61.2016 39.6941 60.3942 42.9964C60.0482 44.4108 59.7021 45.8252 59.3683 47.2457C59.3457 47.3599 59.3069 47.4703 59.253 47.5735V47.5553Z" fill="white"/>
<path d="M58.1239 47.5007C59.8054 50.6998 61.5112 53.8928 62.3732 57.444C62.2882 57.8689 62.2031 58.2939 61.7175 58.4578C59.5079 57.6808 58.2938 55.8475 57.0191 54.0688L56.7823 53.9718C56.6063 51.6832 56.2421 49.3583 58.1239 47.5007Z" fill="white"/>
<path d="M61.7114 59.8903C61.5502 59.8918 61.3899 59.8651 61.2379 59.8114C58.7309 58.9312 57.3165 56.9704 56.0721 55.2222C55.8671 55.106 55.6939 54.9411 55.5679 54.7421C55.4419 54.543 55.367 54.3159 55.3497 54.0809L55.3072 53.5467C55.1251 51.3736 54.9066 48.6904 57.1283 46.4808C57.2867 46.3258 57.4784 46.209 57.6888 46.1396C57.8993 46.0701 58.1229 46.0499 58.3424 46.0802C58.564 46.1151 58.7744 46.2013 58.9567 46.332C59.1391 46.4627 59.2883 46.6343 59.3926 46.833L59.5443 47.1243C61.1894 50.2506 62.8891 53.4921 63.7632 57.1101C63.8077 57.3099 63.8077 57.5172 63.7632 57.7171C63.7193 58.1822 63.545 58.6254 63.2604 58.9959C62.9759 59.3663 62.5925 59.649 62.1545 59.8114C62.0117 59.86 61.8623 59.8867 61.7114 59.8903ZM58.1542 53.2129L58.1846 53.2493L58.3788 53.5225C58.9859 54.4538 59.6944 55.315 60.4913 56.0903C59.843 54.2113 59.0516 52.3848 58.1239 50.6269C58.0482 51.4838 58.0584 52.346 58.1542 53.2008V53.2129Z" fill="white"/>
<path d="M58.1239 47.5007L56.7762 53.9718C51.1368 47.4825 45.8495 40.7201 41.6003 33.2414C41.7581 33.1504 41.9099 33.0411 42.0738 32.9622C47.5371 30.5341 48.1441 30.6069 51.3007 35.5846C53.6439 39.2875 55.7746 43.124 57.9781 46.9058C58.0206 47.1001 58.0692 47.3004 58.1239 47.5007Z" fill="white"/>
<path d="M56.7762 55.4103C56.5709 55.4096 56.3682 55.3648 56.1818 55.2789C55.9954 55.193 55.8296 55.0681 55.6957 54.9125C49.0183 47.2335 44.1619 40.5743 40.3255 33.9576C40.1369 33.631 40.0847 33.2434 40.1802 32.8786C40.2756 32.5138 40.511 32.2013 40.8354 32.009L40.9447 31.9423C41.1069 31.834 41.2774 31.7386 41.4545 31.657C47.622 28.8828 48.9636 29.2713 52.4784 34.8135C54.1174 37.3995 55.6714 40.0826 57.1768 42.705C57.8506 43.8705 58.5244 45.036 59.2104 46.2016C59.2789 46.3197 59.332 46.4462 59.3682 46.5779L59.5139 47.1849C59.5578 47.3849 59.5578 47.592 59.5139 47.792L58.1724 54.263C58.1178 54.5252 57.9912 54.7669 57.8068 54.9611C57.6223 55.1552 57.3873 55.2939 57.1283 55.3617C57.0133 55.3918 56.895 55.4082 56.7762 55.4103ZM43.5853 33.8484C47.2388 39.8448 51.3807 45.5298 55.9688 50.8454L56.6487 47.5552V47.4763C55.9992 46.3715 55.3497 45.2546 54.7062 44.1437C53.219 41.5698 51.671 38.9111 50.0745 36.3737C48.7087 34.2247 47.8831 33.0896 47.1607 32.8893C46.4383 32.6889 45.2425 33.126 43.5853 33.8484Z" fill="white"/>
<path d="M66.8895 27.0193C66.9803 27.0284 67.0718 27.0284 67.1626 27.0193C73.0448 26.1634 73.142 26.1512 74.1314 32.2216C74.8963 36.9079 75.3455 41.6428 75.9526 46.3534C76.0557 47.1608 76.2014 47.9924 75.4123 48.6237C71.0538 52.0899 67.0048 55.9568 62.0575 58.6824C61.9037 58.4281 61.8122 58.141 61.7903 57.8447C61.7939 57.3919 61.8718 56.9427 62.021 56.5152C64.2003 48.0167 65.2687 39.3543 65.8636 30.6251C65.9304 29.6295 65.8089 28.6158 66.1792 27.6566C66.2456 27.5061 66.3433 27.3714 66.4657 27.2615C66.5882 27.1516 66.7326 27.0691 66.8895 27.0193Z" fill="#068099"/>
<path d="M66.8894 27.0192C66.7804 27.1289 66.6974 27.2617 66.6466 27.4077C66.6041 27.4806 66.5677 27.6081 66.507 27.6323C62.6948 28.8828 62.0999 32.1062 61.4443 35.4631C60.8373 38.4983 60.1331 41.4849 59.3743 44.4776C59.1618 45.3396 59.1497 46.2987 58.3484 46.9058C57.0069 47.0575 56.7337 45.892 56.242 45.0847C54.1841 41.7399 52.3569 38.2555 50.1109 35.0139C47.9377 31.8756 47.7131 31.7663 44.0405 32.8589C43.2635 33.0896 42.523 33.5449 41.6549 33.3081C41.5517 33.2231 41.4424 33.1442 41.3332 33.0653C40.2891 31.3595 40.5501 30.3883 42.6444 29.6902C49.338 27.4684 56.1166 25.5462 62.9801 23.9233C66.5981 23.0917 66.6041 23.1342 66.8894 27.0192Z" fill="#DDA002"/>
<path d="M56.4484 58.8462C50.8637 58.8037 47.877 55.5439 45.7767 50.7361C43.8098 46.2319 41.4849 41.8855 39.6699 37.3024C38.8443 35.2203 39.0628 33.8423 41.3149 33.0896L41.5699 33.2414C43.8463 34.8075 44.7447 37.4178 46.2562 39.5485C49.7346 44.4655 53.6985 49.0122 57.1829 53.9474C57.2932 54.2173 57.3747 54.4981 57.4257 54.7851C57.2618 56.1813 58.2331 57.8385 56.4484 58.8462Z" fill="#C61340"/>
<path d="M56.4484 58.8462L57.0129 54.0688C58.9676 55.119 60.2363 56.8977 61.7114 58.4578C61.7924 58.4417 61.8765 58.4555 61.948 58.4968C62.0195 58.5382 62.0735 58.6042 62.0999 58.6824L61.9178 58.8584C60.1999 59.5383 58.488 60.2546 56.7033 59.0527C56.6021 59.0068 56.5144 58.9357 56.4484 58.8462Z" fill="#28263F"/>
<path d="M56.7034 59.0526L61.9179 58.8583C61.1348 59.7567 60.036 60.1513 59.0101 60.6794C57.2801 61.5353 56.4909 60.9951 56.7034 59.0526Z" fill="#05809B"/>
<path d="M57.9721 46.9058C59.083 42.1344 60.4002 37.3995 61.2379 32.5918C61.8449 29.3441 63.314 27.5413 66.6405 27.4077C66.5495 37.6059 65.3779 47.6585 62.3913 57.4439C60.2667 54.4451 59.3561 50.8757 57.7171 47.6342C57.6912 47.501 57.7012 47.3634 57.746 47.2354C57.7908 47.1074 57.8689 46.9937 57.9721 46.9058Z" fill="#00803C"/>
<path d="M58.1239 47.5007C59.8054 50.6998 61.5112 53.8928 62.3732 57.444C62.2882 57.8689 62.2031 58.2939 61.7175 58.4578C59.5079 57.6808 58.2938 55.8475 57.0191 54.0688L56.7823 53.9718C56.6063 51.6832 56.2421 49.3583 58.1239 47.5007Z" fill="#1B1A28"/>
<path d="M58.1239 47.5007L56.7762 53.9718C51.1368 47.4825 45.8495 40.7201 41.6003 33.2414C41.7581 33.1504 41.9099 33.0411 42.0738 32.9622C47.5371 30.5341 48.1441 30.6069 51.3007 35.5846C53.6439 39.2875 55.7746 43.124 57.9781 46.9058C58.0206 47.1001 58.0692 47.3004 58.1239 47.5007Z" fill="#C51718"/>
<path d="M32.0759 34.4615C31.8903 34.456 31.7105 34.3954 31.5595 34.2874C31.4085 34.1794 31.2932 34.0288 31.2281 33.8549C31.163 33.6811 31.151 33.4918 31.1939 33.3112C31.2368 33.1306 31.3325 32.9668 31.4688 32.8407L50.7058 15.3641C50.825 15.255 50.9704 15.1787 51.1278 15.1425C51.2853 15.1064 51.4494 15.1116 51.6042 15.1577L76.4927 22.6728C76.7131 22.7576 76.8933 22.9226 76.997 23.1347C77.1007 23.3468 77.1204 23.5902 77.052 23.8162C76.9836 24.0422 76.8321 24.234 76.6282 24.3529C76.4242 24.4719 76.1829 24.5093 75.9525 24.4576L51.5739 17.0942L32.7557 34.2187C32.665 34.3034 32.5578 34.3686 32.4409 34.4104C32.324 34.4522 32.1998 34.4696 32.0759 34.4615Z" fill="#03809A"/>
<path d="M31.6813 96.5128L31.4142 95.2137H30.3094L30.0544 96.5128H29.6234L30.6857 91.7537H31.056L32.1001 96.5128H31.6813ZM30.8618 92.4638L30.3883 94.8556H31.3413L30.8618 92.4638Z" fill="#585856"/>
<path d="M34.1398 96.3247C34.028 96.4503 33.8759 96.5329 33.7097 96.5584C33.5434 96.5839 33.3736 96.5506 33.2293 96.4643C33.1532 96.409 33.0891 96.3387 33.041 96.2578V97.8726H32.6647V93.1013H33.035V93.3744C33.0825 93.2912 33.1491 93.2205 33.2293 93.168C33.3393 93.0854 33.4741 93.0426 33.6117 93.0466C33.7118 93.0444 33.8111 93.0645 33.9025 93.1054C33.9938 93.1464 34.0749 93.2072 34.1398 93.2834C34.3523 93.5262 34.3947 93.9572 34.3947 94.801C34.3947 95.6448 34.3523 96.0879 34.1398 96.3247ZM33.8484 93.5444C33.808 93.4969 33.7578 93.4587 33.7012 93.4325C33.6446 93.4063 33.583 93.3927 33.5206 93.3926C33.4008 93.3911 33.2852 93.4369 33.1989 93.5201C33.1413 93.5826 33.0975 93.6565 33.0703 93.7371C33.0431 93.8176 33.0332 93.9029 33.041 93.9875V95.6387C33.0332 95.7233 33.0431 95.8087 33.0703 95.8892C33.0975 95.9697 33.1413 96.0435 33.1989 96.1061C33.2852 96.1893 33.4008 96.2351 33.5206 96.2336C33.5826 96.2347 33.644 96.2222 33.7006 96.197C33.7572 96.1718 33.8077 96.1346 33.8484 96.0879C34.0001 95.9058 34.0244 95.584 34.0244 94.8131C34.0244 94.0421 34.0001 93.7083 33.8484 93.5444Z" fill="#585856"/>
<path d="M36.4405 96.5129V96.2094C36.3924 96.2954 36.3286 96.3716 36.2523 96.434C36.1343 96.5249 35.9884 96.5721 35.8395 96.5675C35.7388 96.5698 35.6387 96.5511 35.5456 96.5124C35.4526 96.4737 35.3686 96.416 35.2992 96.3429C35.1356 96.1208 35.058 95.8469 35.0807 95.572C35.0714 95.4306 35.092 95.2889 35.1412 95.1561C35.1903 95.0233 35.2669 94.9023 35.366 94.8011C35.457 94.7215 35.5628 94.6606 35.6774 94.6221C35.792 94.5835 35.9132 94.568 36.0338 94.5765H36.4223V93.9694C36.4223 93.5931 36.2705 93.3624 35.9549 93.3624C35.8974 93.3623 35.8405 93.3734 35.7873 93.3953C35.7342 93.4172 35.686 93.4493 35.6453 93.4899C35.588 93.5536 35.5449 93.6287 35.5187 93.7103C35.4926 93.7919 35.484 93.8782 35.4935 93.9634H35.1172C35.1091 93.8353 35.1269 93.7069 35.1697 93.5859C35.2125 93.4649 35.2792 93.3538 35.366 93.2592C35.5347 93.1135 35.7501 93.0333 35.973 93.0333C36.1959 93.0333 36.4114 93.1135 36.5801 93.2592C36.6663 93.3549 36.7319 93.4673 36.7727 93.5895C36.8134 93.7117 36.8284 93.8411 36.8168 93.9694V96.5007L36.4405 96.5129ZM36.4405 94.8678H36.0702C35.9937 94.863 35.917 94.874 35.845 94.9002C35.7729 94.9263 35.707 94.9669 35.6514 95.0196C35.5245 95.1726 35.4595 95.3675 35.4692 95.566C35.4692 95.9727 35.621 96.2337 35.9488 96.2337C36.2766 96.2337 36.4405 95.9727 36.4405 95.6266V94.8678Z" fill="#585856"/>
<path d="M38.7715 93.4108C38.6825 93.4024 38.5927 93.4137 38.5086 93.444C38.4245 93.4742 38.3481 93.5227 38.2849 93.5859C38.2217 93.6492 38.1732 93.7255 38.1429 93.8097C38.1126 93.8938 38.1013 93.9835 38.1098 94.0725V96.5006H37.7517V93.1012H38.1219V93.4594C38.1651 93.3787 38.2227 93.3067 38.2919 93.2469C38.3747 93.1749 38.4711 93.12 38.5753 93.0856C38.6795 93.0512 38.7895 93.038 38.899 93.0466V93.3987L38.7715 93.4108Z" fill="#585856"/>
<path d="M39.8702 96.3005C39.7797 96.2095 39.7101 96.1 39.6661 95.9795C39.622 95.8589 39.6047 95.7302 39.6152 95.6023V93.4049H39.2025V93.1014H39.6152V92.0997H39.9916V93.1014H40.5986V93.3927H39.9916V95.5902C39.9916 96.003 40.2041 96.1972 40.5986 96.1972V96.5311C40.468 96.5429 40.3364 96.5286 40.2113 96.489C40.0862 96.4494 39.9703 96.3853 39.8702 96.3005Z" fill="#585856"/>
<path d="M42.4745 96.5128V96.2093C42.4264 96.2953 42.3625 96.3715 42.2862 96.4339C42.1701 96.524 42.0265 96.5711 41.8796 96.5674C41.7779 96.5698 41.6768 96.5512 41.5828 96.5125C41.4888 96.4738 41.4038 96.416 41.3332 96.3428C41.1696 96.1207 41.092 95.8468 41.1147 95.5719C41.1054 95.4305 41.126 95.2888 41.1752 95.156C41.2243 95.0232 41.3009 94.9022 41.4 94.801C41.4919 94.7209 41.5987 94.6598 41.7144 94.6212C41.8301 94.5827 41.9522 94.5675 42.0738 94.5764H42.4562V93.9694C42.4562 93.593 42.3045 93.3623 41.9888 93.3623C41.9322 93.3616 41.876 93.3725 41.8238 93.3945C41.7716 93.4164 41.7244 93.4488 41.6853 93.4898C41.6269 93.553 41.5827 93.6279 41.5555 93.7096C41.5282 93.7912 41.5187 93.8777 41.5274 93.9633H41.1572C41.1479 93.8356 41.1647 93.7074 41.2064 93.5863C41.2482 93.4653 41.314 93.354 41.4 93.2591C41.5692 93.1146 41.7845 93.0352 42.007 93.0352C42.2296 93.0352 42.4448 93.1146 42.6141 93.2591C42.698 93.356 42.7618 93.4688 42.8014 93.5908C42.841 93.7128 42.8557 93.8416 42.8447 93.9694V96.5006L42.4745 96.5128ZM42.4745 94.8678H42.1042C42.0277 94.863 41.951 94.874 41.8789 94.9001C41.8068 94.9262 41.7409 94.9668 41.6853 95.0195C41.5606 95.1734 41.4978 95.3682 41.5092 95.5659C41.5092 95.9726 41.6549 96.2336 41.9827 96.2336C42.3105 96.2336 42.4745 95.9726 42.4745 95.6266V94.8678Z" fill="#585856"/>
<path d="M46.408 96.5128V93.9512C46.408 93.5809 46.2016 93.3987 45.9406 93.3987C45.8713 93.3989 45.8028 93.414 45.7398 93.4428C45.6768 93.4717 45.6208 93.5137 45.5753 93.566C45.5299 93.6183 45.4962 93.6798 45.4765 93.7462C45.4568 93.8126 45.4515 93.8825 45.461 93.9512V96.5128H45.0907V93.9512C45.0907 93.5809 44.8782 93.3987 44.6233 93.3987C44.554 93.3989 44.4855 93.414 44.4225 93.4428C44.3595 93.4717 44.3035 93.5137 44.258 93.566C44.2126 93.6183 44.1789 93.6798 44.1592 93.7462C44.1395 93.8126 44.1342 93.8825 44.1438 93.9512V96.5128H43.7735V93.1013H44.1377V93.3744C44.1878 93.2932 44.2538 93.223 44.3319 93.1681C44.4449 93.0866 44.5812 93.044 44.7204 93.0467C44.8424 93.0552 44.9608 93.092 45.0662 93.1542C45.1715 93.2164 45.261 93.3022 45.3275 93.4048C45.3882 93.3117 45.4666 93.2312 45.5581 93.1681C45.6802 93.0866 45.8242 93.0443 45.971 93.0467C46.0773 93.0394 46.1839 93.0564 46.2828 93.0963C46.3816 93.1363 46.4701 93.1982 46.5415 93.2774C46.6194 93.3689 46.6779 93.4752 46.7134 93.59C46.7489 93.7048 46.7606 93.8256 46.7479 93.9451V96.5007L46.408 96.5128Z" fill="#585856"/>
<path d="M47.9802 94.8678C47.9802 95.5659 47.9802 95.9058 48.1563 96.0819C48.1988 96.13 48.2511 96.1684 48.3097 96.1946C48.3684 96.2208 48.432 96.2341 48.4962 96.2336C48.5599 96.2362 48.6236 96.2256 48.6831 96.2027C48.7426 96.1797 48.7967 96.1447 48.8422 96.1C48.9501 95.9646 49.0022 95.7931 48.9879 95.6205H49.3582C49.3694 95.7507 49.3531 95.8818 49.3102 96.0052C49.2673 96.1286 49.1988 96.2416 49.1093 96.3368C49.029 96.4143 48.9338 96.4747 48.8294 96.5143C48.7251 96.554 48.6138 96.572 48.5023 96.5675C48.3893 96.5704 48.2771 96.5498 48.1726 96.5069C48.0681 96.4641 47.9736 96.4 47.8952 96.3186C47.6767 96.0819 47.6221 95.6265 47.6221 94.8131C47.6221 93.9997 47.6706 93.5505 47.8952 93.3016C47.9739 93.221 48.0686 93.1579 48.1731 93.1161C48.2776 93.0742 48.3897 93.0548 48.5023 93.0588C48.615 93.0532 48.7276 93.0719 48.8324 93.1138C48.9372 93.1557 49.0316 93.2198 49.1093 93.3016C49.3339 93.5505 49.3825 93.9997 49.3825 94.8678H47.9802ZM48.824 93.5444C48.7832 93.4958 48.7321 93.4569 48.6743 93.4307C48.6165 93.4044 48.5536 93.3914 48.4901 93.3927C48.4249 93.3917 48.3603 93.4048 48.3006 93.431C48.2409 93.4572 48.1876 93.4958 48.1441 93.5444C48.0106 93.7023 47.9863 93.9815 47.9802 94.5704H48.994C48.9879 93.9815 48.9576 93.7083 48.824 93.5444Z" fill="#585856"/>
<path d="M51.5071 96.5128V93.9511C51.5071 93.5808 51.2947 93.3987 51.0397 93.3987C50.9704 93.3989 50.902 93.4139 50.839 93.4428C50.776 93.4716 50.7199 93.5136 50.6745 93.5659C50.629 93.6183 50.5953 93.6797 50.5756 93.7461C50.5559 93.8126 50.5506 93.8825 50.5601 93.9511V96.5128H50.1898V93.1012H50.5541V93.3744C50.6041 93.2931 50.6703 93.2229 50.7483 93.168C50.8613 93.0866 50.9976 93.044 51.1369 93.0466C51.2372 93.0448 51.3368 93.0644 51.4289 93.1042C51.521 93.144 51.6036 93.203 51.6711 93.2773C51.7489 93.3688 51.8073 93.4751 51.8428 93.5899C51.8783 93.7047 51.8901 93.8256 51.8774 93.945V96.5006L51.5071 96.5128Z" fill="#585856"/>
<path d="M53.1765 96.3005C53.0873 96.2086 53.0185 96.0989 52.9746 95.9786C52.9306 95.8583 52.9125 95.7301 52.9215 95.6023V93.4049H52.5088V93.1014H52.9215V92.0997H53.2979V93.1014H53.9049V93.3927H53.2979V95.5902C53.2979 96.003 53.5103 96.1972 53.9049 96.1972V96.5311C53.7743 96.5429 53.6426 96.5286 53.5175 96.489C53.3925 96.4494 53.2766 96.3853 53.1765 96.3005Z" fill="#585856"/>
<path d="M55.9628 96.3004C55.8813 96.3847 55.7836 96.4517 55.6757 96.4974C55.5678 96.5432 55.4517 96.5668 55.3345 96.5668C55.2172 96.5668 55.1012 96.5432 54.9933 96.4974C54.8854 96.4517 54.7877 96.3847 54.7062 96.3004C54.4998 96.0515 54.4513 95.6205 54.4513 94.8131C54.4513 94.0058 54.4998 93.5991 54.7062 93.332C54.7868 93.2462 54.8841 93.1778 54.9922 93.131C55.1003 93.0843 55.2167 93.0602 55.3345 93.0602C55.4522 93.0602 55.5687 93.0843 55.6767 93.131C55.7848 93.1778 55.8822 93.2462 55.9628 93.332C56.1692 93.5809 56.2178 94.0118 56.2178 94.8131C56.2178 95.6144 56.1934 96.0515 55.9628 96.3004ZM55.6714 93.5444C55.6301 93.4965 55.5788 93.4581 55.5211 93.4319C55.4635 93.4057 55.4008 93.3923 55.3375 93.3927C55.2723 93.3917 55.2077 93.4048 55.148 93.431C55.0883 93.4572 55.035 93.4958 54.9915 93.5444C54.8398 93.7326 54.8276 94.0847 54.8276 94.8131C54.8276 95.5416 54.8276 95.8937 54.9915 96.0819C55.035 96.1305 55.0883 96.1691 55.148 96.1953C55.2077 96.2215 55.2723 96.2346 55.3375 96.2336C55.4008 96.234 55.4635 96.2206 55.5211 96.1944C55.5788 96.1682 55.6301 96.1299 55.6714 96.0819C55.8232 95.8937 55.8414 95.5476 55.8414 94.8131C55.8414 94.0786 55.8475 93.7083 55.6957 93.5444H55.6714Z" fill="#585856"/>
<path d="M58.4274 96.3065C58.3441 96.3922 58.2438 96.4597 58.1331 96.5046C58.0223 96.5496 57.9034 96.5709 57.7839 96.5675C57.6716 96.5697 57.56 96.5494 57.4557 96.5077C57.3514 96.466 57.2566 96.4038 57.1769 96.3247C57.0851 96.2266 57.0141 96.111 56.9682 95.9847C56.9223 95.8585 56.9025 95.7243 56.9098 95.5901H57.2862C57.2777 95.6813 57.2884 95.7733 57.3177 95.8601C57.347 95.9469 57.3941 96.0266 57.4561 96.094C57.5493 96.1831 57.6732 96.2331 57.8021 96.2336C57.8728 96.2356 57.9432 96.2231 58.0089 96.197C58.0747 96.1709 58.1344 96.1318 58.1846 96.0819C58.2901 95.9659 58.3466 95.8136 58.3424 95.6569C58.3464 95.5286 58.3126 95.402 58.2452 95.2927C58.1597 95.1657 58.0425 95.0631 57.9053 94.9953L57.4804 94.7646C57.3004 94.6718 57.1476 94.5337 57.0373 94.3639C56.9542 94.1881 56.9266 93.9912 56.958 93.7993C56.9895 93.6074 57.0785 93.4297 57.2133 93.2895C57.2941 93.2126 57.3893 93.1525 57.4936 93.1129C57.5978 93.0733 57.7089 93.055 57.8204 93.0588C57.9315 93.0527 58.0427 93.0695 58.1471 93.1081C58.2516 93.1468 58.347 93.2065 58.4274 93.2834C58.5168 93.3824 58.585 93.4986 58.6278 93.6249C58.6706 93.7512 58.6871 93.885 58.6762 94.0179H58.2999C58.3129 93.9303 58.3067 93.8409 58.2815 93.7559C58.2563 93.671 58.2129 93.5926 58.1542 93.5262C58.1117 93.4809 58.0597 93.4455 58.002 93.4224C57.9444 93.3993 57.8824 93.3892 57.8204 93.3927C57.7551 93.3884 57.6897 93.3975 57.6281 93.4194C57.5665 93.4413 57.51 93.4756 57.4621 93.5201C57.3631 93.6295 57.3108 93.7733 57.3165 93.9208C57.3141 94.022 57.337 94.1221 57.3832 94.2122C57.4644 94.3232 57.5733 94.4111 57.6989 94.4671L58.1178 94.71C58.3053 94.7988 58.4649 94.9374 58.5792 95.1106C58.6736 95.2723 58.7199 95.4576 58.7127 95.6448C58.7123 95.7686 58.6868 95.8911 58.6378 96.0048C58.5887 96.1185 58.5172 96.2212 58.4274 96.3065Z" fill="#585856"/>
<path d="M61.5354 97.1745C61.4939 97.3969 61.3673 97.5943 61.1825 97.7247C60.9977 97.8551 60.7693 97.9081 60.5459 97.8727V97.5388C60.6837 97.5568 60.8232 97.5216 60.9359 97.4404C61.0487 97.3592 61.1264 97.2381 61.153 97.1017L61.3108 96.4947L60.4973 93.1074H60.9162L61.5233 95.9119L62.0999 93.1074H62.5127L61.5354 97.1745Z" fill="#585856"/>
<path d="M65.9 96.349C65.8186 96.4243 65.723 96.4825 65.6187 96.52C65.5144 96.5576 65.4036 96.5737 65.2929 96.5675C65.1784 96.5701 65.0647 96.5476 64.9598 96.5014C64.8549 96.4553 64.7614 96.3867 64.6859 96.3005C64.4795 96.0577 64.4309 95.6205 64.4309 94.8132C64.4309 94.0058 64.4795 93.5992 64.6859 93.3321C64.76 93.2437 64.853 93.1733 64.9581 93.126C65.0633 93.0787 65.1777 93.0558 65.2929 93.0589C65.4033 93.0508 65.5141 93.0655 65.6185 93.102C65.723 93.1386 65.8187 93.1962 65.9 93.2714C65.9871 93.3726 66.0529 93.4903 66.0936 93.6176C66.1343 93.7448 66.149 93.8789 66.1367 94.0119H65.7725C65.7908 93.8409 65.743 93.6693 65.6389 93.5323C65.5942 93.4866 65.5409 93.4504 65.482 93.4256C65.4231 93.4008 65.3599 93.388 65.296 93.388C65.2321 93.388 65.1688 93.4008 65.1099 93.4256C65.051 93.4504 64.9977 93.4866 64.953 93.5323C64.8073 93.7205 64.7891 94.0727 64.7891 94.8011C64.7891 95.5296 64.7891 95.8816 64.953 96.0698C64.996 96.119 65.0492 96.1581 65.109 96.1844C65.1688 96.2106 65.2337 96.2233 65.299 96.2216C65.3598 96.222 65.42 96.2104 65.4763 96.1875C65.5325 96.1646 65.5837 96.1308 65.6268 96.088C65.6817 96.0217 65.7228 95.9452 65.7478 95.8628C65.7728 95.7805 65.7812 95.694 65.7725 95.6084H66.1367C66.1486 95.7414 66.1338 95.8755 66.0932 96.0027C66.0525 96.1298 65.9868 96.2476 65.9 96.349Z" fill="#585856"/>
<path d="M68.3342 96.3004C68.2595 96.3876 68.1662 96.4569 68.0611 96.5031C67.9561 96.5494 67.8419 96.5713 67.7272 96.5674C67.6122 96.5727 67.4977 96.5514 67.3924 96.505C67.2871 96.4587 67.1939 96.3887 67.1201 96.3004C66.9077 96.0515 66.8651 95.6204 66.8651 94.8131C66.8651 94.0057 66.9077 93.599 67.1201 93.332C67.1936 93.2429 67.2865 93.172 67.3918 93.1246C67.497 93.0773 67.6118 93.0548 67.7272 93.0588C67.8423 93.0561 67.9566 93.0792 68.0617 93.1265C68.1667 93.1737 68.2599 93.244 68.3342 93.332C68.5406 93.5808 68.5892 94.0118 68.5892 94.8131C68.5892 95.6144 68.5406 96.0515 68.3342 96.3004ZM68.0368 93.5444C67.9954 93.4964 67.9441 93.458 67.8865 93.4318C67.8288 93.4056 67.7662 93.3922 67.7029 93.3926C67.6386 93.3922 67.5751 93.4055 67.5164 93.4317C67.4578 93.4579 67.4055 93.4963 67.363 93.5444C67.2112 93.7326 67.193 94.0846 67.193 94.8131C67.193 95.5415 67.193 95.8937 67.363 96.0818C67.4055 96.13 67.4578 96.1684 67.5164 96.1946C67.5751 96.2207 67.6386 96.2341 67.7029 96.2336C67.7662 96.234 67.8288 96.2206 67.8865 96.1944C67.9441 96.1682 67.9954 96.1298 68.0368 96.0818C68.1946 95.8937 68.2128 95.5476 68.2128 94.8131C68.2128 94.0786 68.1946 93.7083 68.0368 93.5444Z" fill="#585856"/>
<path d="M72.0675 96.5128V93.9512C72.0675 93.5809 71.855 93.3987 71.594 93.3987C71.333 93.3987 71.1205 93.5809 71.1205 93.9512V96.5128H70.7502V93.9512C70.7502 93.5809 70.5377 93.3987 70.2767 93.3987C70.0157 93.3987 69.8033 93.5809 69.8033 93.9512V96.5128H69.4329V93.1013H69.7972V93.3744C69.8473 93.2932 69.9133 93.223 69.9914 93.1681C70.1044 93.0866 70.2407 93.044 70.3799 93.0467C70.5019 93.0553 70.6203 93.092 70.7257 93.1542C70.831 93.2164 70.9204 93.3022 70.987 93.4048C71.0477 93.3117 71.1261 93.2312 71.2176 93.1681C71.3698 93.0725 71.5498 93.0313 71.7284 93.0511C71.907 93.071 72.0736 93.1507 72.201 93.2774C72.2789 93.3689 72.3373 93.4752 72.3728 93.59C72.4083 93.7048 72.4201 93.8256 72.4074 93.9451V96.5007L72.0675 96.5128Z" fill="#585856"/>
<path d="M73.6397 94.8678C73.6397 95.5659 73.6397 95.9059 73.8097 96.0819C73.9018 96.1731 74.0261 96.2243 74.1557 96.2243C74.2853 96.2243 74.4096 96.1731 74.5017 96.0819C74.6069 95.9451 74.6587 95.7746 74.6474 95.6023H75.0177C75.0289 95.7325 75.0126 95.8636 74.9697 95.9871C74.9268 96.1105 74.8583 96.2235 74.7688 96.3187C74.6884 96.3962 74.5932 96.4565 74.4889 96.4961C74.3846 96.5358 74.2733 96.5539 74.1617 96.5494C74.0488 96.5523 73.9366 96.5317 73.8321 96.4888C73.7276 96.446 73.6331 96.3818 73.5547 96.3004C73.3362 96.0637 73.2816 95.6084 73.2816 94.795C73.2816 93.9816 73.3301 93.5324 73.5547 93.2835C73.6334 93.2029 73.728 93.1397 73.8326 93.0979C73.9371 93.056 74.0492 93.0366 74.1617 93.0407C74.2744 93.035 74.387 93.0537 74.4918 93.0956C74.5966 93.1376 74.6911 93.2017 74.7688 93.2835C74.9934 93.5324 75.042 93.9816 75.042 94.8496L73.6397 94.8678ZM74.4835 93.5445C74.4427 93.4959 74.3915 93.457 74.3337 93.4307C74.276 93.4045 74.213 93.3915 74.1496 93.3927C74.0843 93.3909 74.0194 93.4037 73.9596 93.4299C73.8998 93.4561 73.8465 93.4952 73.8036 93.5445C73.6701 93.7023 73.6458 93.9816 73.6397 94.5704H74.6535C74.6474 93.9816 74.617 93.7084 74.4835 93.5445Z" fill="#585856"/>
<path d="M76.8813 93.4109C76.7923 93.4025 76.7025 93.4138 76.6184 93.444C76.5343 93.4743 76.4579 93.5228 76.3947 93.586C76.3315 93.6492 76.283 93.7256 76.2527 93.8097C76.2225 93.8938 76.2112 93.9836 76.2196 94.0726V96.5007H75.8493V93.1013H76.2135V93.4594C76.2567 93.3788 76.3143 93.3068 76.3835 93.247C76.4665 93.1752 76.5628 93.1206 76.667 93.0862C76.7712 93.0518 76.8812 93.0384 76.9906 93.0467V93.3988L76.8813 93.4109Z" fill="#585856"/>
<path d="M78.9574 96.3489C78.7851 96.493 78.5654 96.5678 78.341 96.5589C78.1166 96.5499 77.9035 96.4578 77.7433 96.3004C77.5369 96.0576 77.4883 95.6205 77.4883 94.8131C77.4883 94.0058 77.5369 93.5991 77.7433 93.332C77.9019 93.1729 78.1142 93.0785 78.3386 93.0673C78.563 93.0561 78.7836 93.1288 78.9574 93.2713C79.0456 93.3721 79.1125 93.4896 79.1542 93.6168C79.196 93.7441 79.2116 93.8784 79.2002 94.0119H78.8299C78.8403 93.9271 78.8338 93.8411 78.8109 93.7588C78.7879 93.6765 78.749 93.5995 78.6963 93.5323C78.6544 93.4859 78.6027 93.4493 78.545 93.4252C78.4873 93.4011 78.425 93.3899 78.3625 93.3927C78.2972 93.3909 78.2323 93.4036 78.1725 93.4299C78.1127 93.4561 78.0593 93.4952 78.0164 93.5444C77.8647 93.7326 77.8465 94.0847 77.8465 94.8131C77.8465 95.5416 77.8464 95.8937 78.0164 96.0819C78.0593 96.1311 78.1127 96.1702 78.1725 96.1964C78.2323 96.2227 78.2972 96.2354 78.3625 96.2336C78.4232 96.2341 78.4834 96.2225 78.5396 96.1996C78.5959 96.1766 78.6471 96.1428 78.6902 96.1C78.744 96.0333 78.784 95.9566 78.808 95.8742C78.8319 95.7919 78.8394 95.7057 78.8299 95.6205H79.2002C79.2106 95.752 79.1945 95.8843 79.1528 96.0094C79.111 96.1346 79.0446 96.25 78.9574 96.3489Z" fill="#585856"/>
<path d="M79.9407 92.3303V91.8447H80.4264V92.3303H79.9407ZM79.9954 96.5128V93.1013H80.3717V96.5007L79.9954 96.5128Z" fill="#585856"/>
<path d="M82.7392 96.3004C82.6648 96.3879 82.5716 96.4574 82.4664 96.5037C82.3613 96.55 82.2469 96.5718 82.1321 96.5674C82.0172 96.5727 81.9027 96.5514 81.7974 96.505C81.6921 96.4587 81.5989 96.3887 81.5251 96.3004C81.3187 96.0515 81.2701 95.6204 81.2701 94.8131C81.2701 94.0057 81.3187 93.599 81.5251 93.332C81.5986 93.2429 81.6915 93.172 81.7968 93.1246C81.902 93.0773 82.0168 93.0548 82.1321 93.0588C82.2474 93.0557 82.3618 93.0786 82.4669 93.1259C82.5721 93.1732 82.6651 93.2436 82.7392 93.332C82.9456 93.5808 82.9942 94.0118 82.9942 94.8131C82.9942 95.6144 82.9456 96.0515 82.7392 96.3004ZM82.4417 93.5444C82.4004 93.4964 82.3491 93.458 82.2915 93.4318C82.2338 93.4056 82.1712 93.3922 82.1078 93.3926C82.0436 93.3922 81.9801 93.4055 81.9215 93.4317C81.8628 93.4579 81.8105 93.4963 81.7679 93.5444C81.6162 93.7326 81.598 94.0846 81.598 94.8131C81.598 95.5415 81.598 95.8937 81.7679 96.0818C81.8105 96.13 81.8628 96.1684 81.9215 96.1946C81.9801 96.2207 82.0436 96.2341 82.1078 96.2336C82.1712 96.234 82.2338 96.2206 82.2915 96.1944C82.3491 96.1682 82.4004 96.1298 82.4417 96.0818C82.5996 95.8937 82.6178 95.5476 82.6178 94.8131C82.6178 94.0786 82.5996 93.7083 82.4417 93.5444Z" fill="#585856"/>
</svg>
