<svg width="75" height="75" viewBox="0 0 75 75" fill="none" xmlns="http://www.w3.org/2000/svg">
<circle cx="37.5" cy="37.5" r="37.5" fill="#40C351"/>
<g clip-path="url(#clip0_1_16)">
<path fill-rule="evenodd" clip-rule="evenodd" d="M48.6179 26.4011C47.233 24.9938 45.5817 23.8765 43.7603 23.1143C41.9389 22.3522 39.9839 21.9604 38.0095 21.962C34.0336 21.967 30.2216 23.5474 27.4084 26.357C24.5953 29.1666 23.0101 32.9765 23 36.9525C22.9975 39.7779 23.7951 42.5463 25.3004 44.9373L25.6521 45.5076L24.1407 51.0399L29.8441 49.5475L30.3954 49.8707C32.6971 51.2367 35.3236 51.959 38 51.962C41.9701 51.9595 45.7778 50.3852 48.5905 47.5832C51.4031 44.7812 52.9919 40.9796 53.0095 37.0095C53.0157 35.0387 52.6307 33.0862 51.8769 31.2652C51.123 29.4442 50.0153 27.7909 48.6179 26.4011ZM46.8308 43.4449C46.4601 44.5 44.616 45.5076 43.789 45.5837C42.962 45.6597 42.192 45.9639 38.3802 44.462C33.7985 42.6464 30.8992 37.9506 30.6711 37.6464C29.6251 36.303 28.9911 34.685 28.846 32.9886C28.8271 32.2795 28.9579 31.5744 29.2297 30.9193C29.5016 30.2641 29.9085 29.6736 30.424 29.1863C30.5747 29.0159 30.7587 28.8782 30.9647 28.7818C31.1707 28.6853 31.3943 28.6321 31.6217 28.6255H32.4867C32.8099 28.6255 33.1711 28.6255 33.5038 29.4049C33.8365 30.1844 34.7776 32.5228 34.8916 32.751C34.9582 32.8718 34.9931 33.0075 34.9931 33.1454C34.9931 33.2834 34.9582 33.4191 34.8916 33.5399C34.7785 33.8099 34.6281 34.0626 34.4449 34.2909C34.2167 34.557 33.9696 34.8802 33.77 35.0798C33.5704 35.2795 33.3042 35.5551 33.5704 36.0304C34.2448 37.1931 35.0908 38.2475 36.0799 39.1578C37.1504 40.1041 38.3754 40.8597 39.7015 41.3916C40.1578 41.6198 40.4145 41.5818 40.6521 41.2776C41.158 40.7136 41.6339 40.1234 42.078 39.5095C42.3821 39.0627 42.6768 39.1388 43.0951 39.2909C43.5133 39.443 45.7281 40.5266 46.1749 40.7548C46.6217 40.9829 46.9259 41.0875 47.0399 41.2776C47.1864 42.0048 47.1136 42.7591 46.8308 43.4449Z" fill="white"/>
</g>
<defs>
<clipPath id="clip0_1_16">
<rect width="30" height="30" fill="white" transform="translate(23 22)"/>
</clipPath>
</defs>
</svg>
