<svg width="44" height="44" viewBox="0 0 44 44" fill="none" xmlns="http://www.w3.org/2000/svg">
<path d="M24 12C28.4 12 32 15.6 32 20C32 20.6 32.4 21 33 21C33.6 21 34 20.6 34 20C34 14.5 29.5 10 24 10C23.4 10 23 10.4 23 11C23 11.6 23.5 12 24 12ZM44 35C44 34.2 43.7 33.4 43.1 32.9C42.9 32.7 42.8 32.6 42.6 32.5L34.1 25.9C33.6 25.3 32.8 25 32 25C31.3 25 30.7 25.2 30.2 25.6L27.8 28C27.4 28.4 26.9 28.7 26.3 28.7C25.6 28.7 25 28.4 24.7 27.8C24.7 27.8 24.7 27.8 24.7 27.9C21.4 25.5 18.5 22.7 16.2 19.4C16.2 19.4 16.2 19.4 16.3 19.4C15.8 19 15.4 18.4 15.4 17.7C15.4 17.1 15.7 16.5 16.1 16.2L18.5 13.9C18.9 13.4 19.1 12.8 19.1 12.1C19.1 11.3 18.8 10.5 18.2 10L11.6 1.5C11.5 1.3 11.3 1.1 11.2 1C10.6 0.3 9.8 0 9 0C5 0 0 4.7 0 10.5C0 12.1 0.4 13.6 1 15C7 27 17 37 29 43C30.4 43.6 31.9 44 33.5 44C39.3 44 44 39 44 35ZM33.5 42C32.2 42 31 41.7 29.9 41.2C29.8 41.1 29.7 41.1 29.6 41.1C18.2 35.3 8.8 25.8 2.9 14.5C2.9 14.4 2.8 14.3 2.8 14.2C2.3 13 2 11.8 2 10.5C2 5.7 6.2 2 9 2C9.4 2 9.6 2.2 9.7 2.3C9.7 2.3 9.8 2.4 9.8 2.5C9.8 2.6 9.9 2.6 9.9 2.7L16.5 11.2C16.6 11.3 16.6 11.3 16.7 11.4C16.8 11.5 17 11.7 17 12.1C17 12.3 17 12.4 16.9 12.6L14.7 14.8C13.9 15.6 13.4 16.6 13.4 17.7C13.4 18.7 13.8 19.7 14.5 20.5L14.6 20.6C17.1 24 20.1 27 23.6 29.5C23.6 29.5 23.7 29.5 23.7 29.6C24.4 30.3 25.4 30.7 26.5 30.7C27.5 30.7 28.6 30.3 29.3 29.5L29.4 29.4L31.6 27.1C31.6 27 31.8 27 32 27C32.4 27 32.6 27.2 32.7 27.3C32.8 27.4 32.8 27.4 32.9 27.5L41.4 34.1C41.5 34.1 41.5 34.2 41.6 34.2C41.7 34.3 41.8 34.3 41.8 34.3C41.9 34.4 42.1 34.6 42.1 35C42.1 35.1 42.1 35.1 42.1 35.2C41.8 37.9 38.2 42 33.5 42ZM24 2C33.9 2 42 10.1 42 20C42 20.6 42.4 21 43 21C43.6 21 44 20.6 44 20C44 9 35 0 24 0C23.4 0 23 0.4 23 1C23 1.6 23.5 2 24 2ZM24 22C25.1 22 26 21.1 26 20C26 18.9 25.1 18 24 18C22.9 18 22 18.9 22 20C22 21.1 22.9 22 24 22Z" fill="white"/>
</svg>
