<svg width="44" height="47" viewBox="0 0 44 47" fill="none" xmlns="http://www.w3.org/2000/svg">
<path d="M22 0.392822C16.1652 0.392822 10.5694 2.83518 6.44365 7.18268C2.31785 11.5302 0 17.4267 0 23.575C0 29.7233 2.31785 35.6199 6.44365 39.9674C10.5694 44.3149 16.1652 46.7572 22 46.7572C27.8348 46.7572 33.4305 44.3149 37.5564 39.9674C41.6822 35.6199 44 29.7233 44 23.575C44 17.4267 41.6822 11.5302 37.5564 7.18268C33.4305 2.83518 27.8348 0.392822 22 0.392822ZM16.06 3.44856C15.6165 3.94173 15.2055 4.4663 14.83 5.01861L14.72 5.17683C13.8752 6.44179 13.1612 7.79811 12.59 9.22301C12.5609 9.30566 12.5275 9.38681 12.49 9.46561C12.49 9.56045 12.43 9.65505 12.39 9.74988C11.2048 9.14509 10.0934 8.39159 9.08 7.50555C11.1216 5.66861 13.4964 4.28824 16.06 3.44856ZM7.64 8.93874C8.87304 10.0477 10.2378 10.9828 11.7 11.7205C11.7 11.8048 11.7 11.8891 11.62 11.9734C11.1176 13.6548 10.7365 15.3739 10.48 17.1157C10.48 17.337 10.42 17.5793 10.39 17.8111C10.3 18.4961 10.22 19.2021 10.16 19.9186L10.1 20.7194C10.1 21.3201 10.1 21.9207 10.04 22.5318H2.03999C2.27806 17.4345 4.26863 12.6028 7.64 8.93874ZM2 24.6288H10C10 25.2399 10 25.8511 10.06 26.4412L10.12 27.242C10.18 27.948 10.26 28.654 10.35 29.3495C10.35 29.5883 10.38 29.8201 10.44 30.0449C10.6966 31.7867 11.0776 33.5059 11.58 35.1872C11.58 35.2715 11.58 35.3558 11.66 35.4401C10.1978 36.1778 8.83305 37.1129 7.60001 38.2219C4.22864 34.5578 2.23807 29.7261 2 24.6288ZM9 39.6445C10.0134 38.7585 11.1248 38.005 12.31 37.4002C12.31 37.495 12.38 37.5896 12.41 37.6845C12.4475 37.7633 12.4809 37.8444 12.51 37.9271C13.0812 39.3519 13.7952 40.7083 14.64 41.9732L14.75 42.1315C15.1255 42.6838 15.5365 43.2083 15.98 43.7015C13.4447 42.8514 11.098 41.4716 9.08 39.6445H9ZM20.92 44.5443C18.14 43.9647 15.71 40.9829 14.07 36.5993C16.2944 35.7418 18.633 35.258 21 35.1661L20.92 44.5443ZM20.92 33.1009C18.3593 33.1916 15.8282 33.7071 13.42 34.6287C12.5208 31.3781 12.0431 28.0143 12 24.6288H21L20.92 33.1009ZM20.92 22.5635H11.92C11.9826 19.175 12.4805 15.8112 13.4 12.5635C15.8399 13.4961 18.4056 14.0118 21 14.0914L20.92 22.5635ZM20.92 12.0261C18.5821 11.939 16.2712 11.4697 14.07 10.6351C15.71 6.25157 18.14 3.25891 20.92 2.6899V12.0261ZM41.92 22.5635H33.92C33.92 21.9523 33.92 21.3517 33.86 20.7511L33.8 19.9502C33.74 19.2442 33.66 18.5382 33.57 17.8428C33.57 17.6109 33.51 17.3684 33.48 17.1471C33.2235 15.4052 32.8424 13.6864 32.34 12.005C32.34 11.9207 32.34 11.8364 32.26 11.7521C33.7222 11.0144 35.087 10.0791 36.32 8.97013C39.7118 12.6107 41.7307 17.4274 42 22.5213L41.92 22.5635ZM34.92 7.54774C33.9066 8.43378 32.7952 9.18729 31.61 9.79207C31.61 9.69724 31.54 9.60238 31.51 9.50754L31.41 9.2652C30.8388 7.84031 30.1248 6.48398 29.28 5.21902L29.17 5.0608C28.7945 4.50849 28.3835 3.98392 27.94 3.49075C30.5004 4.31783 32.8749 5.68368 34.92 7.50555V7.54774ZM23 2.60577C25.78 3.18533 28.21 6.16719 29.85 10.5507C27.651 11.3997 25.34 11.8833 23 11.9839V2.60577ZM23 14.0492C25.5607 13.9585 28.0918 13.4429 30.5 12.5213C31.4263 15.768 31.9309 19.1319 32 22.5213H23V14.0492ZM23 24.5866H32C31.9374 27.975 31.4395 31.3389 30.52 34.5865C28.1054 33.6628 25.5674 33.1472 23 33.0587V24.5866ZM23 44.5024V35.1661C25.3379 35.2532 27.6488 35.7225 29.85 36.5571C28.21 40.9828 25.78 43.9647 23 44.5443V44.5024ZM27.94 43.6593C28.3835 43.1661 28.7945 42.6416 29.17 42.0893L29.28 41.931C30.1248 40.6661 30.8388 39.3098 31.41 37.8849L31.51 37.6425C31.51 37.5477 31.57 37.4528 31.61 37.358C32.7952 37.9628 33.9066 38.7163 34.92 39.6023C32.8819 41.4543 30.5069 42.8492 27.94 43.7015V43.6593ZM36.36 38.1694C35.127 37.0604 33.7622 36.1251 32.3 35.3874C32.3 35.3031 32.3 35.2188 32.38 35.1345C32.8824 33.4531 33.2634 31.7343 33.52 29.9924C33.52 29.7676 33.55 29.5356 33.61 29.2968C33.7 28.6118 33.78 27.9058 33.84 27.1893L33.9 26.3884C33.9 25.7983 33.9 25.1872 33.96 24.576H41.96C41.7315 29.6881 39.7403 34.5365 36.36 38.2113V38.1694Z" fill="white"/>
</svg>
